<?xml version="1.0" standalone="no"?>
<!DOCTYPE svg PUBLIC "-//W3C//DTD SVG 20010904//EN"
 "http://www.w3.org/TR/2001/REC-SVG-20010904/DTD/svg10.dtd">
<svg version="1.0" xmlns="http://www.w3.org/2000/svg"
 width="1331.000000pt" height="1331.000000pt" viewBox="0 0 1331.000000 1331.000000"
 preserveAspectRatio="xMidYMid meet">
<metadata>
Created by potrace 1.11, written by Peter Selinger 2001-2013
</metadata>
<g transform="translate(0.000000,1331.000000) scale(0.100000,-0.100000)"
fill="#000000" stroke="none">
<path d="M3108 12465 c-2 -2 -39 -6 -83 -10 -44 -4 -82 -8 -85 -10 -3 -2 -30
-6 -60 -9 -305 -33 -733 -182 -1055 -369 -379 -219 -726 -533 -1001 -907 -231
-315 -421 -685 -559 -1092 -45 -130 -104 -332 -120 -407 -20 -93 -65 -316 -71
-351 -4 -25 -8 -47 -9 -50 -1 -3 -5 -32 -9 -65 -5 -33 -10 -67 -11 -76 -6 -32
-21 -160 -32 -279 -10 -104 -11 -862 -1 -945 31 -268 80 -489 162 -740 148
-446 425 -904 781 -1290 130 -142 344 -346 480 -460 39 -32 72 -61 75 -64 26
-32 406 -312 630 -465 153 -105 480 -315 626 -403 10 -6 147 -89 303 -185 156
-95 298 -182 316 -193 139 -83 457 -283 481 -302 5 -4 18 -12 27 -18 194 -118
690 -492 972 -734 256 -220 574 -523 762 -727 15 -16 55 -59 88 -95 33 -35 85
-94 115 -129 30 -36 60 -71 67 -78 7 -7 29 -34 50 -60 21 -26 43 -51 49 -57 6
-5 42 -50 81 -100 276 -353 481 -683 548 -882 9 -26 18 -51 22 -56 3 -5 23 35
44 88 85 216 294 539 558 860 42 51 85 104 96 117 11 14 46 54 77 89 31 35 66
75 78 89 116 135 602 631 750 764 30 28 82 75 115 106 33 30 91 82 129 115 38
33 74 65 80 70 6 6 54 46 106 89 52 44 97 82 100 85 6 7 86 72 144 116 21 17
75 59 120 93 73 57 201 154 265 200 12 9 42 31 65 49 72 53 463 314 629 418
87 55 287 181 445 280 1030 648 1520 1025 1935 1490 45 50 83 92 87 95 3 3 37
46 76 95 300 380 511 788 626 1210 31 113 32 119 48 195 5 25 12 56 15 70 3
14 8 41 11 60 3 19 10 64 16 100 5 36 11 83 13 105 2 22 7 76 11 120 15 156 8
736 -10 845 -2 14 -7 61 -11 104 -3 44 -7 82 -9 85 -2 3 -7 36 -10 73 -4 37
-9 79 -11 93 -28 164 -31 177 -50 270 -78 378 -210 766 -367 1080 -83 165
-137 258 -240 414 -407 614 -996 1068 -1664 1282 -52 17 -103 32 -112 35 -72
18 -234 55 -262 60 -19 2 -46 7 -60 9 -14 3 -43 7 -65 11 -22 3 -49 7 -61 9
-149 24 -600 24 -732 1 -9 -2 -44 -7 -77 -11 -366 -43 -840 -211 -1200 -423
-53 -31 -243 -154 -270 -174 -56 -43 -211 -163 -215 -168 -3 -3 -39 -34 -80
-69 -116 -100 -279 -267 -410 -421 -124 -144 -308 -401 -391 -544 -19 -32 -41
-70 -50 -84 -65 -110 -178 -329 -238 -464 -39 -86 -61 -119 -61 -89 0 19 -151
331 -225 466 -102 186 -269 447 -362 567 -15 20 -37 49 -48 64 -11 16 -34 44
-51 64 -16 19 -39 47 -51 62 -81 108 -288 319 -478 488 -139 124 -436 329
-610 422 -66 35 -235 118 -240 118 -3 0 -28 11 -57 24 -201 90 -547 187 -748
211 -25 3 -58 7 -75 10 -83 14 -128 17 -342 20 -128 1 -233 1 -235 0z m4042
-3368 c19 -3 60 -8 90 -11 30 -4 100 -16 155 -27 642 -130 1073 -495 1229
-1039 25 -88 29 -107 50 -250 13 -88 14 -357 2 -445 -60 -417 -243 -738 -551
-966 -44 -33 -86 -65 -94 -71 -38 -31 -309 -158 -403 -188 -59 -19 -107 -37
-108 -40 0 -3 51 -76 113 -162 107 -151 144 -203 322 -453 43 -60 97 -135 119
-167 23 -31 47 -64 54 -75 7 -10 72 -101 145 -203 72 -102 152 -215 176 -250
25 -36 48 -67 51 -70 3 -3 66 -90 140 -195 74 -104 149 -211 168 -238 l34 -47
-509 0 -509 0 -138 193 c-75 105 -221 310 -324 454 -103 145 -238 334 -300
420 -61 87 -141 199 -176 248 -204 285 -271 379 -281 389 -8 8 -164 11 -541
11 l-529 0 0 -858 0 -857 -432 0 -433 0 0 2456 0 2455 1223 -4 c672 -2 1238
-6 1257 -10z"/>
<path d="M5540 8320 c-4 -3 -8 -373 -8 -823 l0 -818 731 4 c709 4 766 6 852
29 22 6 48 13 57 15 39 7 147 48 208 78 203 102 351 284 406 500 10 41 19 117
21 185 7 272 -90 490 -283 638 -85 65 -285 147 -408 167 -17 3 -42 7 -56 10
-14 2 -50 7 -80 11 -63 8 -1428 12 -1440 4z"/>
</g>
</svg>
